{"title":"Everymans War (PSP + Ipod touch + Zune)","uid":5645117,"size":413889005,"categoryP":"video","categoryS":"handheld","magnet":"?xt=urn:btih:5e759ca3430dadcc8523876a0165cb296ef6f7ea&amp;dn=Everymans+War+%28PSP+%2B+Ipod+touch+%2B+Zune%29&amp;tr=udp%3A%2F%2Ftracker.openbittorrent.com%3A80&amp;tr=udp%3A%2F%2Fopen.demonii.com%3A1337&amp;tr=udp%3A%2F%2Ftracker.coppersurfer.tk%3A6969&amp;tr=udp%3A%2F%2Fexodus.desync.com%3A6969","seeders":0,"leechers":0,"uploader":"on.off.on","files":-1,"time":1277259216,"description":"Everymans War\n\nsource:\n\nEverymans War 2009 720p BluRay x264-LCHD &lt;a href=&quot;\nhttp://www.imdb.com/title/tt1209319/&quot; rel=&quot;nofollow&quot; target=&quot;_NEW&quot;&gt;\nhttp://www.imdb.com/title/tt1209319/&lt;/a&gt;\n\nID                               : 1\nFormat                           : AVC\nFormat/Info                      : Advanced Video Codec\nFormat profile                   : &lt;a class=&quot;__cf_email__&quot; href=&quot;/cdn-cgi/l/email-protection&quot; data-cfemail=&quot;c587a4b6a0a9acaba08589f7ebf5&quot;&gt;[email&amp;#160;protected]&lt;/a&gt;&lt;script cf-hash='f9e31' type=&quot;text/javascript&quot;&gt;\n/* &lt;![CDATA[ */!function(){try{var t=&quot;currentScript&quot;in document?document.currentScript:function(){for(var t=document.getElementsByTagName(&quot;script&quot;),e=t.length;e--;)if(t[e].getAttribute(&quot;cf-hash&quot;))return t[e]}();if(t&amp;&amp;t.previousSibling){var e,r,n,i,c=t.previousSibling,a=c.getAttribute(&quot;data-cfemail&quot;);if(a){for(e=&quot;&quot;,r=parseInt(a.substr(0,2),16),n=2;a.length-n;n+=2)i=parseInt(a.substr(n,2),16)^r,e+=String.fromCharCode(i);e=document.createTextNode(e),c.parentNode.replaceChild(e,c)}}}catch(u){}}();/* ]]&gt; */&lt;/script&gt;\nFormat settings, CABAC           : No\nFormat settings, ReFrames        : 3 frames\nCodec ID                         : avc1\nCodec ID/Info                    : Advanced Video Coding\nDuration                         : 1h 44mn\nBit rate mode                    : Variable\nBit rate                         : 395 Kbps\nWidth                            : 464 pixels\nHeight                           : 208 pixels\nDisplay aspect ratio             : 2.25:1\nFrame rate mode                  : Variable\nFrame rate                       : 23.976 fps\nMinimum frame rate               : 23.810 fps\nMaximum frame rate               : 24.390 fps\nColor space                      : YUV\nChroma subsampling               : 4:2:0\nBit depth                        : 8 bits\nScan type                        : Progressive\nBits/(Pixel*Frame)               : 0.171\nStream size                      : 296 MiB (75%)\nWriting library                  : x264 core 79\n\nID                               : 2\nFormat                           : AAC\nFormat/Info                      : Advanced Audio Codec\nFormat version                   : Version 4\nFormat profile                   : LC\nFormat settings, SBR             : No\nCodec ID                         : 40\nDuration                         : 1h 44mn\nBit rate mode                    : Variable\nBit rate                         : 128 Kbps\nMaximum bit rate                 : 229 Kbps\nChannel(s)                       : 2 channels\nChannel positions                : Front: L R\nSampling rate                    : 48.0 KHz\nStream size                      : 95.6 MiB (24%)\nLanguage                         : English\n &lt;a href=&quot;\nhttp://img171.imageshack.us/img171/6571/vlcsnap00001k.png&quot; rel=&quot;nofollow&quot; target=&quot;_NEW&quot;&gt;\nhttp://img171.imageshack.us/img171/6571/vlcsnap00001k.png&lt;/a&gt; &lt;a href=&quot;\nhttp://img175.imageshack.us/img175/6350/vlcsnap00002y.png&quot; rel=&quot;nofollow&quot; target=&quot;_NEW&quot;&gt;\nhttp://img175.imageshack.us/img175/6350/vlcsnap00002y.png&lt;/a&gt; &lt;a href=&quot;\nhttp://img683.imageshack.us/img683/7651/vlcsnap00003w.png&quot; rel=&quot;nofollow&quot; target=&quot;_NEW&quot;&gt;\nhttp://img683.imageshack.us/img683/7651/vlcsnap00003w.png&lt;/a&gt; &lt;a href=&quot;\nhttp://img441.imageshack.us/img441/2733/vlcsnap00004b.png&quot; rel=&quot;nofollow&quot; target=&quot;_NEW&quot;&gt;\nhttp://img441.imageshack.us/img441/2733/vlcsnap00004b.png&lt;/a&gt; &lt;a href=&quot;\nhttp://img153.imageshack.us/img153/8229/vlcsnap00005w.png&quot; rel=&quot;nofollow&quot; target=&quot;_NEW&quot;&gt;\nhttp://img153.imageshack.us/img153/8229/vlcsnap00005w.png&lt;/a&gt; &lt;a href=&quot;\nhttp://img203.imageshack.us/img203/3815/vlcsnap00006w.png&quot; rel=&quot;nofollow&quot; target=&quot;_NEW&quot;&gt;\nhttp://img203.imageshack.us/img203/3815/vlcsnap00006w.png&lt;/a&gt; &lt;a href=&quot;\nhttp://img714.imageshack.us/img714/7393/vlcsnap00007s.png&quot; rel=&quot;nofollow&quot; target=&quot;_NEW&quot;&gt;\nhttp://img714.imageshack.us/img714/7393/vlcsnap00007s.png&lt;/a&gt; &lt;a href=&quot;\nhttp://img576.imageshack.us/img576/5169/vlcsnap00008h.png&quot; rel=&quot;nofollow&quot; target=&quot;_NEW&quot;&gt;\nhttp://img576.imageshack.us/img576/5169/vlcsnap00008h.png&lt;/a&gt;\n\n\n\n\nPLEASE LET THE TORRENT SEED AND SHARE IT WITH ALL YOU KNOW!\n\nLet me know what I can do to be your trusted source of Handheld videos.\n\n\n\n-OOO","torrent":{"xt":"urn:btih:5e759ca3430dadcc8523876a0165cb296ef6f7ea","amp;dn":"Everymans+War+%28PSP+%2B+Ipod+touch+%2B+Zune%29","amp;tr":["udp%3A%2F%2Ftracker.openbittorrent.com%3A80","udp%3A%2F%2Fopen.demonii.com%3A1337","udp%3A%2F%2Ftracker.coppersurfer.tk%3A6969","udp%3A%2F%2Fexodus.desync.com%3A6969"],"infoHash":"5e759ca3430dadcc8523876a0165cb296ef6f7ea","infoHashBuffer":{"type":"Buffer","data":[94,117,156,163,67,13,173,204,133,35,135,106,1,101,203,41,110,246,247,234]},"announce":[],"urlList":[]}}